<svg width="32" height="32" viewBox="0 0 32 32" fill="none" xmlns="http://www.w3.org/2000/svg">
<path fill-rule="evenodd" clip-rule="evenodd" d="M26 4.66667C25.4696 4.66667 24.9609 4.87738 24.5858 5.25245C24.2107 5.62753 24 6.13623 24 6.66667V8H28V6.66667C28 6.13623 27.7893 5.62753 27.4142 5.25245C27.0391 4.87738 26.5304 4.66667 26 4.66667ZM28 9.33333H24V20.3333L26 23.3333L28 20.3333V9.33333ZM4 2V22C4 22.5304 4.21071 23.0391 4.58579 23.4142C4.96086 23.7893 5.46957 24 6 24H20.6667C21.1971 24 21.7058 23.7893 22.0809 23.4142C22.456 23.0391 22.6667 22.5304 22.6667 22V2C22.6667 1.46957 22.456 0.960859 22.0809 0.585787C21.7058 0.210714 21.1971 0 20.6667 0H6C5.46957 0 4.96086 0.210714 4.58579 0.585787C4.21071 0.960859 4 1.46957 4 2ZM13.3333 6C13.3333 5.82319 13.4036 5.65362 13.5286 5.5286C13.6536 5.40357 13.8232 5.33333 14 5.33333H19.3333C19.5101 5.33333 19.6797 5.40357 19.8047 5.5286C19.9298 5.65362 20 5.82319 20 6C20 6.17681 19.9298 6.34638 19.8047 6.4714C19.6797 6.59643 19.5101 6.66667 19.3333 6.66667H14C13.8232 6.66667 13.6536 6.59643 13.5286 6.4714C13.4036 6.34638 13.3333 6.17681 13.3333 6ZM14 8C13.8232 8 13.6536 8.07024 13.5286 8.19526C13.4036 8.32029 13.3333 8.48986 13.3333 8.66667C13.3333 8.84348 13.4036 9.01305 13.5286 9.13807C13.6536 9.2631 13.8232 9.33333 14 9.33333H19.3333C19.5101 9.33333 19.6797 9.2631 19.8047 9.13807C19.9298 9.01305 20 8.84348 20 8.66667C20 8.48986 19.9298 8.32029 19.8047 8.19526C19.6797 8.07024 19.5101 8 19.3333 8H14ZM13.3333 14.6667C13.3333 14.4899 13.4036 14.3203 13.5286 14.1953C13.6536 14.0702 13.8232 14 14 14H19.3333C19.5101 14 19.6797 14.0702 19.8047 14.1953C19.9298 14.3203 20 14.4899 20 14.6667C20 14.8435 19.9298 15.013 19.8047 15.1381C19.6797 15.2631 19.5101 15.3333 19.3333 15.3333H14C13.8232 15.3333 13.6536 15.2631 13.5286 15.1381C13.4036 15.013 13.3333 14.8435 13.3333 14.6667ZM14 16.6667C13.8232 16.6667 13.6536 16.7369 13.5286 16.8619C13.4036 16.987 13.3333 17.1565 13.3333 17.3333C13.3333 17.5101 13.4036 17.6797 13.5286 17.8047C13.6536 17.9298 13.8232 18 14 18H19.3333C19.5101 18 19.6797 17.9298 19.8047 17.8047C19.9298 17.6797 20 17.5101 20 17.3333C20 17.1565 19.9298 16.987 19.8047 16.8619C19.6797 16.7369 19.5101 16.6667 19.3333 16.6667H14ZM8 14.6667V16.6667H10V14.6667H8ZM7.33333 13.3333H10.6667C10.8435 13.3333 11.013 13.4036 11.1381 13.5286C11.2631 13.6536 11.3333 13.8232 11.3333 14V17.3333C11.3333 17.5101 11.2631 17.6797 11.1381 17.8047C11.013 17.9298 10.8435 18 10.6667 18H7.33333C7.15652 18 6.98695 17.9298 6.86193 17.8047C6.7369 17.6797 6.66667 17.5101 6.66667 17.3333V14C6.66667 13.8232 6.7369 13.6536 6.86193 13.5286C6.98695 13.4036 7.15652 13.3333 7.33333 13.3333ZM11.8047 6.47133C11.9261 6.3456 11.9933 6.1772 11.9918 6.0024C11.9903 5.8276 11.9202 5.66039 11.7965 5.53679C11.6729 5.41318 11.5057 5.34307 11.3309 5.34155C11.1561 5.34003 10.9877 5.40723 10.862 5.52867L8.66667 7.724L7.80467 6.862C7.67893 6.74056 7.51053 6.67337 7.33573 6.67488C7.16094 6.6764 6.99373 6.74652 6.87012 6.87012C6.74652 6.99373 6.6764 7.16093 6.67488 7.33573C6.67337 7.51053 6.74056 7.67893 6.862 7.80467L8.66667 9.60933L11.8047 6.47133Z" fill="#545454"/>
</svg>
