<svg width="30" height="30" viewBox="0 0 30 30" fill="none" xmlns="http://www.w3.org/2000/svg">
<path d="M29.2565 26.0554L25.6729 22.4714C26.4923 21.317 26.8481 19.8969 26.6697 18.4925C26.4912 17.0882 25.7916 15.8021 24.7095 14.8894C23.6275 13.9766 22.2419 13.5037 20.8276 13.5645C19.4133 13.6253 18.0734 14.2153 17.0737 15.2176C16.0739 16.2198 15.4872 17.5611 15.4299 18.9756C15.3726 20.3901 15.8489 21.7744 16.7644 22.8542C17.6798 23.934 18.9676 24.6305 20.3723 24.8054C21.7771 24.9804 23.1964 24.6211 24.3487 23.7989L27.9314 27.381C28.1082 27.5518 28.345 27.6463 28.5908 27.6442C28.8366 27.642 29.0717 27.5434 29.2456 27.3696C29.4194 27.1958 29.518 26.9607 29.5201 26.7149C29.5223 26.469 29.4278 26.2322 29.257 26.0554H29.2565ZM17.3381 19.2239C17.3381 18.4822 17.558 17.7572 17.9701 17.1405C18.3821 16.5238 18.9678 16.0431 19.653 15.7593C20.3382 15.4755 21.0922 15.4012 21.8197 15.5459C22.5471 15.6906 23.2153 16.0478 23.7397 16.5722C24.2642 17.0966 24.6213 17.7648 24.766 18.4923C24.9107 19.2197 24.8365 19.9737 24.5526 20.6589C24.2688 21.3441 23.7881 21.9298 23.1715 22.3419C22.5548 22.7539 21.8298 22.9739 21.0881 22.9739C20.0939 22.9727 19.1407 22.5773 18.4377 21.8743C17.7346 21.1713 17.3392 20.2181 17.3381 19.2239Z" fill="#545454"/>
<path d="M13.5881 19.2239C13.5857 17.9061 13.9313 16.611 14.5898 15.4695C15.2483 14.328 16.1965 13.3805 17.3385 12.7228C18.4805 12.0652 19.7759 11.7206 21.0937 11.724C22.4115 11.7274 23.7051 12.0786 24.8438 12.7421V8.90582H0.46875V22.9683H14.5997C13.9375 21.8315 13.5885 20.5395 13.5881 19.2239Z" fill="#545454"/>
<path d="M0.46875 2.34357V7.03107H24.8438V2.34357H0.46875ZM3.28125 5.62482C3.09583 5.62482 2.91457 5.56983 2.7604 5.46682C2.60623 5.36381 2.48607 5.21739 2.41511 5.04608C2.34416 4.87478 2.32559 4.68628 2.36176 4.50442C2.39794 4.32256 2.48723 4.15552 2.61834 4.0244C2.74945 3.89329 2.9165 3.804 3.09835 3.76783C3.28021 3.73166 3.46871 3.75022 3.64002 3.82118C3.81132 3.89214 3.95774 4.0123 4.06075 4.16647C4.16377 4.32064 4.21875 4.5019 4.21875 4.68732C4.21875 4.93596 4.11998 5.17441 3.94416 5.35023C3.76835 5.52605 3.52989 5.62482 3.28125 5.62482ZM6.09375 5.62482C5.90833 5.62482 5.72707 5.56983 5.5729 5.46682C5.41873 5.36381 5.29857 5.21739 5.22761 5.04608C5.15666 4.87478 5.13809 4.68628 5.17426 4.50442C5.21044 4.32256 5.29973 4.15552 5.43084 4.0244C5.56195 3.89329 5.729 3.804 5.91085 3.76783C6.09271 3.73166 6.28121 3.75022 6.45252 3.82118C6.62382 3.89214 6.77024 4.0123 6.87325 4.16647C6.97627 4.32064 7.03125 4.5019 7.03125 4.68732C7.03125 4.93596 6.93248 5.17441 6.75666 5.35023C6.58085 5.52605 6.34239 5.62482 6.09375 5.62482ZM8.90625 5.62482C8.72083 5.62482 8.53957 5.56983 8.3854 5.46682C8.23123 5.36381 8.11107 5.21739 8.04011 5.04608C7.96916 4.87478 7.95059 4.68628 7.98676 4.50442C8.02294 4.32256 8.11223 4.15552 8.24334 4.0244C8.37445 3.89329 8.5415 3.804 8.72335 3.76783C8.90521 3.73166 9.09371 3.75022 9.26502 3.82118C9.43632 3.89214 9.58274 4.0123 9.68575 4.16647C9.78877 4.32064 9.84375 4.5019 9.84375 4.68732C9.84375 4.93596 9.74498 5.17441 9.56916 5.35023C9.39335 5.52605 9.15489 5.62482 8.90625 5.62482Z" fill="#545454"/>
</svg>
